<?xml version="1.0" encoding="utf-8"?>
<!-- Generator: Adobe Illustrator 23.1.1, SVG Export Plug-In . SVG Version: 6.00 Build 0)  -->
<svg version="1.1" id="Layer_1" xmlns="http://www.w3.org/2000/svg" xmlns:xlink="http://www.w3.org/1999/xlink" x="0px" y="0px"
	 viewBox="0 0 53.2 45.9" style="enable-background:new 0 0 53.2 45.9;" xml:space="preserve">
<style type="text/css">
	.st0{fill:#FFFFFF;}
	.st1{fill:#006732;stroke:#006732;stroke-width:0.2;}
	.st2{fill:#00813B;stroke:#00813B;stroke-width:0.2;}
	.st3{fill:#00813B;}
	.st4{fill:#D24234;}
</style>
<g>
	<g>
		<path d="M2.8,13L2.8,13 M2.8,13C2.8,13,2.8,13,2.8,13L2.8,13L2.8,13 M2.8,12C2.8,12,2.8,12,2.8,12c-0.2,0-0.5,0.1-0.6,0.2l0,0
			c-0.4,0.3-0.5,0.8-0.3,1.2C2,13.8,2.4,14,2.7,14c0.1,0,0.2,0,0.3,0l0.1,0c0.4-0.1,0.7-0.4,0.7-0.8c0,0,0-0.1,0-0.2
			C3.8,12.4,3.3,12,2.8,12L2.8,12C2.8,12,2.8,12,2.8,12L2.8,12z M2.8,14L2.8,14L2.8,14L2.8,14z"/>
	</g>
	<g>
		<g>
			<path d="M46.2,24.1c0.6,0,1.1,0.1,1.7,0.1c1.4,0.2,2.8,0.6,4.1,1.2c-0.1,0.1-0.2,0.1-0.4,0.1c0,0-0.1,0-0.1,0
				c-1.5,0.2-2.9,0.4-4.5,0.6l-0.5,0.1C46.4,25.6,46.3,24.8,46.2,24.1 M46.2,23.1c-0.3,0-0.6,0.1-0.8,0.4c-0.2,0.2-0.3,0.5-0.2,0.8
				c0.1,0.3,0.1,0.5,0.1,0.9c0.1,0.4,0.1,0.9,0.2,1.3c0.1,0.4,0.5,0.8,1,0.8c0,0,0.1,0,0.1,0l0.5-0.1c0.7-0.1,1.3-0.2,1.9-0.3
				c0.8-0.1,1.6-0.2,2.4-0.3c0,0,0.1,0,0.1,0c0.3,0,0.6-0.1,0.8-0.2c0.3-0.2,0.6-0.5,0.6-0.9c0-0.4-0.2-0.7-0.6-0.9
				c-1.4-0.7-2.9-1.1-4.5-1.3C47.4,23.2,46.8,23.1,46.2,23.1C46.2,23.1,46.2,23.1,46.2,23.1L46.2,23.1z"/>
		</g>
		<g>
			<path d="M30.8,1.1c0.3,0.5,0.4,1.1,0.5,1.6c0.2,1.5,0.3,3,0.3,4.5c0,0,0,0,0,0c0,0,0,0,0,0c0,0,0,0,0,0c0,0,0,0,0,0
				c-0.1,1.4-0.3,2.8-0.6,4.1c1.1,0.2,2.2,0.5,3.3,0.9c1.3-1,2.8-1.8,4.2-2.6c0,0,0,0,0,0c1.6-0.7,3.3-1.2,5-1.3v0
				c0.2,0,0.5-0.1,0.7-0.1c0.4,0,0.7,0,1.1,0.1c0,0.2-0.2,0.3-0.4,0.5c-1.5,0.9-3,1.9-4.5,2.8c0,0,0,0,0,0c-1,0.7-1.9,1.5-2.7,2.4
				c0.9,0.7,1.8,1.6,2.5,2.5c0.7-0.1,1.4-0.2,2.1-0.2c0.4,0,0.9,0,1.3,0.1c0,0,0,0,0,0c1.2,0.1,2.3,0.3,3.4,0.6
				c0.6,0.2,1.1,0.4,1.6,0.7c0.2,0.1,0.4,0.2,0.5,0.4c-0.5,0.1-0.9,0.2-1.4,0.2c-1.1,0.1-2.1,0.3-3.1,0.5c0,0,0,0,0,0
				c-1,0.3-1.9,0.8-2.7,1.3c0.3,1.1,0.5,2.2,0.5,3.3c0,0.2,0,0.4,0,0.5c0.7-0.1,1.5-0.1,2.2-0.1c0.4,0,0.9,0,1.3,0
				c0.1,0.7,0.2,1.4,0.3,2v0.1c-1.4,0.1-2.8,0.4-4.1,1c-0.5,0.2-0.4,0.8-0.6,1.2c1.1,0.1,2.2,0.7,3,1.5c-0.8,0-1.6-0.2-2.4-0.2h-1.1
				c-0.3,0.7-0.7,1.3-1.1,1.9c0,0,0,0,0,0c1.5,0.9,3,1.7,4.4,2.6c0.2,0.1,0.4,0.2,0.6,0.3l0.1,0.2c-1-0.1-1.9-0.2-2.8-0.5
				c-1.2-0.2-2.4-0.6-3.6-0.9c-0.5,0.5-1,1.1-1.5,1.6c1.1,1.2,2.1,2.5,2.8,4c0,0.1,0,0.1-0.1,0.1c-0.7,0-5.1-2-5.1-2.1c0,0,0,0,0,0
				c0,0,0,0,0,0c-0.8,0.6-1.7,1.1-2.6,1.6c-2.1,1-4.3,1.6-6.5,1.9c-0.3,1.6-1.7,3.1-2.6,4.5c-0.2-1.4-0.1-2.8,0.1-4.2
				c-0.5,0.1-1,0.1-1.5,0.1c-1.1,0-1.3-0.1-1.8-0.1c0,0-0.1,0-0.1,0c-0.3,0.5-2.5,4.2-2.7,4.2c0-1.6,0.1-3.2,0.2-4.8
				c-0.5-0.1-1-0.3-1.5-0.5c0,0-0.1,0-0.1,0c-0.1,0-0.3,0.1-0.4,0.2c-1.4,0.9-2.6,2-3.7,3.2c0-0.4,0-0.8,0-1.2
				c0.3-1.3,0.8-2.5,1.5-3.6c-0.4-0.3-0.8-0.5-1.1-0.8c-0.3,0.1-0.6,0.3-0.9,0.5c-1.1,0.9-2.1,1.9-3,2.9c-0.4,0.4-0.7,0.9-1.2,1
				c0.1-0.2,0.1-0.4,0.1-0.6c0.8-2,2-3.8,3.5-5.2l-0.2-0.3C10,36.1,9,36.3,8.1,36.4c-0.6,0.1-1.3,0.2-1.9,0.2c0,0,0,0-0.1,0
				c0.1-0.3,0.4-0.5,0.6-0.7c0.6-0.6,1.1-1.3,1.6-2C8.5,33.6,8.8,33.3,9,33c-0.2-0.5-0.3-0.9-0.5-1.4c-0.6-0.3-1.4-0.4-2.2-0.4
				c-1.5,0-3.2,0.3-4.5,0.3c-0.2,0-0.4,0-0.5,0c1.4-1.5,4.9-2,6.8-2c-0.1-0.7-0.1-1.3,0-2c-1.7,0.2-3.9,0.7-5.7,0.7
				c-0.3,0-0.5,0-0.8,0C1.6,28.1,1.8,28,2,27.9c1.9-0.9,4-1.5,6.1-1.8l0.1-0.5c-1.5-1-3.2-1.7-4.9-2.1C2.6,23.2,2,23,1.3,22.9
				c1.1-1.3,3.9-1.5,6.1-1.5c0.8,0,1.6,0,2.2,0.1c0.3-0.4,0.5-0.9,0.8-1.4c0.2-0.2,0-0.4,0-0.6c-1-2.6-5.2-5-7.5-6.2
				c-0.1,0-0.2-0.1-0.1-0.2l0.3-0.1c0.2,0,0.5,0,0.7,0c3.4,0,7.3,1.5,10.3,3.1l0.3-0.3c0.1,0.2,0.1,0.3,0.1,0.5
				c-0.6,3.2-0.6,6.5,0.1,9.6c0.3,1.2,0.7,2.4,1.3,3.5c0.1-0.2,0.1-0.3,0.2-0.5c0.1-0.4,0.3-0.7,0.4-1.1c0.4-1.2,0.8-2.3,1.2-3.5
				c0-0.1,0.1-0.2,0.1-0.2c-0.1,0.1-0.1,0.2-0.1,0.2c-0.4,1.2-0.8,2.3-1.2,3.5c-0.1,0.4-0.2,0.7-0.4,1.1c-0.1,0.2-0.1,0.3-0.2,0.5
				c-0.6-1.1-1-2.3-1.3-3.5c-0.7-3.2-0.7-6.5-0.1-9.6c0-0.2,0-0.4-0.1-0.5c0.2-0.2,0.5-0.4,0.7-0.5c-0.7-1.8-2.4-2.8-3.5-4.4
				c0-0.1,0-0.1,0.1-0.1c0.1,0,0.3,0.1,0.3,0.1c1.9,0.3,3.3,2.1,4.6,3.5c0.4-0.2,0.8-0.4,1.2-0.6c1.2-2.5-1.3-6-2.1-8.2h0
				c0,0,0,0,0,0c0.2,0,0.3,0,0.5,0.1c2.5,1.5,4.5,3.8,5.7,6.5c0.7-0.1,1.4-0.3,2.1-0.5c0-1.2-0.1-2.3-0.4-3.5
				c-0.2-0.6-0.3-1.2-0.4-1.7c1,0.1,1.9,1.4,2.3,2.2c0.4,0.8,1.1,1.8,1.6,2.7h1c0.9-1.4,1.4-2.9,1.6-4.5V6.5h0.1
				c0.2-0.8,0.4-1.5,0.6-2.3c0.2-0.9,0.4-1.9,0.6-2.8C30.8,1.2,30.8,1.2,30.8,1.1 M30.8,0.1C30.8,0.1,30.8,0.1,30.8,0.1
				c-0.5,0-0.8,0.3-1,0.7c0,0,0,0.1,0,0.1c0,0.1-0.1,0.2-0.1,0.3c-0.1,0.7-0.3,1.4-0.4,2.1l-0.2,0.7c-0.1,0.7-0.3,1.3-0.5,2
				c-0.1,0.2-0.2,0.4-0.2,0.6v0c-0.1,1.2-0.5,2.4-1.1,3.5c-0.2-0.3-0.3-0.6-0.5-0.9c-0.2-0.4-0.5-0.8-0.7-1.2
				c-0.5-0.9-1.6-2.5-3.1-2.7c0,0-0.1,0-0.1,0c-0.3,0-0.5,0.1-0.7,0.3c-0.2,0.2-0.3,0.5-0.3,0.9c0.1,0.6,0.3,1.3,0.5,1.9
				c0.2,0.7,0.3,1.5,0.4,2.3c-0.1,0-0.1,0-0.2,0c-0.1,0-0.2,0.1-0.4,0.1c-1.3-2.6-3.2-4.7-5.7-6.2c-0.3-0.2-0.7-0.3-1-0.3
				c-0.3,0-0.7,0.2-0.8,0.4c-0.2,0.3-0.3,0.6-0.1,0.9c0.2,0.6,0.5,1.3,0.9,2c0.8,1.7,1.8,3.8,1.4,5.2c-0.1,0-0.1,0.1-0.2,0.1
				c0,0,0,0,0,0c-1.2-1.3-2.6-2.8-4.6-3.2c-0.2,0-0.3-0.1-0.5-0.1c-0.4,0-0.7,0.2-0.9,0.5c-0.1,0.1-0.3,0.5-0.1,1
				c0,0.1,0.1,0.2,0.1,0.2c0.5,0.6,1,1.2,1.5,1.7c0.5,0.5,1,1,1.4,1.6c-2.4-1.2-6.2-2.7-9.9-2.7c-0.3,0-0.5,0-0.8,0
				c-0.1,0-0.2,0-0.2,0l-0.3,0.1c-0.4,0.1-0.7,0.4-0.7,0.8C1.7,13.4,2,14,2.5,14.2C6.2,16,8.7,18,9.4,19.7c0,0,0,0,0,0
				c-0.1,0.1-0.2,0.3-0.3,0.4c-0.1,0.1-0.1,0.2-0.2,0.3c-0.5,0-1,0-1.6,0c-3.7,0-5.8,0.6-6.9,1.9c-0.2,0.3-0.3,0.6-0.2,1
				c0.1,0.3,0.4,0.6,0.7,0.6c0.6,0.1,1.2,0.3,1.7,0.5c0.1,0,0.1,0,0.2,0.1c1,0.2,2,0.6,3,1.1c-1.5,0.3-3,0.8-4.4,1.5
				c-0.2,0.1-0.5,0.2-0.7,0.4c-0.4,0.2-0.5,0.7-0.4,1.1c0.1,0.4,0.5,0.7,0.9,0.7c0.3,0,0.6,0,0.9,0c0.4,0,0.8,0,1.3-0.1
				c-1.2,0.4-2.3,0.9-3,1.6c-0.3,0.3-0.3,0.7-0.2,1c0.1,0.4,0.5,0.6,0.9,0.6c0.2,0,0.4,0,0.6,0c0.7,0,1.4-0.1,2.2-0.1
				c0.8-0.1,1.6-0.1,2.3-0.1c0.6,0,1.1,0.1,1.5,0.2c0.1,0.1,0.1,0.3,0.2,0.4c0,0,0,0,0,0c-0.1,0.1-0.2,0.3-0.3,0.4
				C7.1,34,6.6,34.6,6,35.2c0,0-0.1,0.1-0.1,0.1c-0.2,0.2-0.6,0.5-0.8,1c-0.1,0.3,0,0.6,0.1,0.9c0.2,0.3,0.5,0.4,0.8,0.4l0.1,0
				c0.7,0,1.4-0.1,2.1-0.2c0,0,0.1,0,0.1,0c-0.8,1-1.4,2.2-1.8,3.4c0,0.1,0,0.1,0,0.2c0,0.2-0.1,0.3-0.1,0.5c-0.1,0.4,0,0.7,0.2,1
				c0.2,0.2,0.4,0.3,0.7,0.3c0.1,0,0.2,0,0.3,0c0.6-0.2,1-0.6,1.3-0.9C9,41.6,9,41.5,9.1,41.4c0,0,0,0,0.1-0.1c0.9-1,1.9-2,2.9-2.8
				c0,0,0,0,0,0c-0.5,0.9-0.8,1.9-1.1,2.9C10.9,42,10.9,42.5,11,43c0,0.4,0.3,0.7,0.7,0.8c0.1,0,0.2,0,0.3,0c0.3,0,0.5-0.1,0.7-0.3
				c1-1.1,2.2-2.1,3.5-3l0,0c0.1,0,0.3,0.1,0.4,0.1c-0.1,1.3-0.2,2.7-0.2,4c0,0.3,0.1,0.5,0.3,0.7c0.2,0.2,0.4,0.3,0.7,0.3
				c0,0,0,0,0.1,0c0.6,0,0.7,0,3.1-4.1c0,0,0,0,0,0c0.3,0,0.7,0.1,1.3,0.1c0.1,0,0.2,0,0.3,0c-0.1,1.1-0.1,2.2,0,3.2
				c0,0.4,0.3,0.8,0.8,0.9c0.1,0,0.2,0,0.2,0c0.3,0,0.6-0.2,0.8-0.4c0.2-0.3,0.4-0.6,0.7-1c0.7-1,1.5-2.1,1.9-3.2
				c2.1-0.3,4.2-0.9,6.2-1.9c0.8-0.4,1.5-0.8,2.3-1.3c0.4,0.2,1,0.4,1.8,0.8C39.6,40,40,40,40.2,40c0.4,0,0.7-0.2,0.9-0.5
				c0.2-0.3,0.2-0.7,0-1c-0.6-1.3-1.4-2.4-2.3-3.5c0.1-0.2,0.3-0.3,0.4-0.5c1,0.3,2,0.6,3,0.8c1,0.3,2,0.4,3,0.5c0,0,0,0,0.1,0
				c0.3,0,0.6-0.1,0.8-0.4c0.2-0.3,0.3-0.6,0.1-1l-0.1-0.2c-0.1-0.3-0.3-0.5-0.6-0.6c-0.1,0-0.3-0.1-0.4-0.2c-0.8-0.5-1.6-1-2.4-1.4
				c-0.4-0.2-0.8-0.5-1.2-0.7c0.1-0.2,0.2-0.4,0.3-0.6h0.4c0.3,0,0.6,0.1,0.9,0.1c0.5,0.1,1,0.1,1.5,0.1c0.4,0,0.8-0.2,0.9-0.6
				c0.2-0.4,0.1-0.8-0.2-1.1c-0.6-0.6-1.2-1-2-1.3c1-0.4,2-0.6,3-0.6c0.5,0,1-0.5,1-1v-0.1c0-0.1,0-0.2,0-0.2
				c-0.1-0.3-0.1-0.6-0.1-0.9c0-0.3-0.1-0.7-0.2-1c-0.1-0.4-0.5-0.8-0.9-0.8c-0.4,0-0.9,0-1.3,0c-0.4,0-0.8,0-1.2,0
				c0-0.8-0.1-1.6-0.3-2.4c0.5-0.3,1-0.5,1.6-0.7c0.1,0,0.1,0,0.2,0c1-0.3,2-0.4,3-0.5c0.5,0,1-0.1,1.5-0.2c0.3-0.1,0.6-0.3,0.7-0.6
				c0.1-0.3,0.1-0.7-0.1-0.9c-0.2-0.3-0.5-0.6-0.9-0.8c-0.5-0.3-1.1-0.5-1.8-0.7c-1.1-0.3-2.3-0.6-3.4-0.7c-0.1,0-0.1,0-0.2-0.1
				c-0.5-0.1-1-0.1-1.4-0.1c-0.6,0-1.2,0-1.7,0.1c-0.5-0.5-1-1-1.5-1.5c0.5-0.5,1.1-1,1.6-1.4c0.1,0,0.1-0.1,0.2-0.1
				c1.3-0.9,2.7-1.8,4.4-2.8l0,0c0.2-0.1,0.8-0.5,0.8-1.3c0-0.5-0.3-0.9-0.8-1c-0.4-0.1-0.8-0.1-1.3-0.1c-0.3,0-0.6,0-0.9,0.1
				c-0.1,0-0.1,0-0.2,0.1c-1.7,0.2-3.3,0.6-4.8,1.3c-0.1,0-0.2,0-0.3,0.1c-1.4,0.7-2.7,1.5-4,2.3c-0.6-0.2-1.3-0.4-1.9-0.5
				c0.2-1,0.4-2.1,0.4-3.2c0,0,0-0.1,0-0.1c0,0,0,0,0,0c0-1.6-0.1-3.1-0.3-4.7c-0.1-0.7-0.3-1.3-0.6-1.9C31.6,0.3,31.2,0.1,30.8,0.1
				L30.8,0.1z"/>
		</g>
	</g>
</g>
<title>Asset 1</title>
<g>
	<g id="Layer_1-2">
		<g id="_52252320">
			<path id="_51449800" class="st0" d="M32.9,19.2c0.4-0.2,0.8,0,1,0.3c0.2,0.4,0.4,1,0,1.3c-0.4,0.3-0.9,0.3-1.3,0
				c-0.3-0.3-0.4-0.7-0.4-1.1C32.4,19.5,32.6,19.3,32.9,19.2L32.9,19.2z"/>
			<path id="_51448704" class="st0" d="M25,19.9c0.3-0.1,0.6-0.1,0.8,0.1c0.3,0.3,0.4,0.6,0.5,1c0,0.6-0.7,0.9-1.2,0.7
				c-0.3-0.2-0.6-0.6-0.6-1C24.4,20.4,24.6,20,25,19.9z"/>
			<path id="_51447576" class="st0" d="M36.9,27.5c0.1,0,0.2-0.1,0.4-0.1c0,0.5-0.2,0.9-0.4,1.3c-0.4,0.6-0.8,1.2-1.4,1.6
				c-0.6,0.4-1.3,0.8-2,1.1c0.4-1,0.7-2,1-2.9C35.2,28.1,36.1,27.8,36.9,27.5z"/>
			<path id="_51446408" class="st0" d="M18.9,27.9c1,0.4,1.9,0.6,2.9,0.9c-0.4,0.5-0.7,0.9-1.1,1.4C20,29.5,19.3,28.8,18.9,27.9z"/>
			<path id="_51358688" class="st0" d="M32.5,29c0.5-0.1,0.9-0.2,1.4-0.4c-0.3,1-0.7,1.9-1,2.9c-1.3,0.3-2.6,0.6-3.9,0.7
				c0.5-0.9,1-1.9,1.3-2.9C31,29.3,31.8,29.2,32.5,29z"/>
			<path id="_51357616" class="st0" d="M21.1,30.4c0.4-0.5,0.8-1,1.2-1.5c0.9,0.2,1.8,0.4,2.8,0.5c-0.5,0.7-1,1.5-1.5,2.2
				C22.7,31.4,21.8,31,21.1,30.4z"/>
			<path id="_51356048" class="st0" d="M37.1,29l0.3-0.1c-0.7,1-1.4,2-2.3,2.8c-0.4,0.4-0.8,0.8-1.2,1.1c-0.5,0.4-0.9,0.7-1.5,1
				c0.2-0.6,0.5-1.3,0.8-1.9c0-0.1,0.1-0.2,0.2-0.3c0.4-0.2,0.8-0.3,1.1-0.5c0.6-0.3,1.1-0.7,1.6-1.1C36.4,29.8,36.8,29.4,37.1,29z"
				/>
			<path id="_51429296" class="st0" d="M19.9,31.2c-0.3-0.6-0.6-1.3-0.8-2c0.4,0.5,0.9,0.9,1.4,1.3L19.9,31.2z"/>
			<path id="_51428832" class="st0" d="M25.6,29.5c1.4,0.1,2.8,0.1,4.2-0.1c-0.4,1-0.9,1.9-1.4,2.9c-1.5,0-3-0.2-4.4-0.5
				C24.5,31,25,30.3,25.6,29.5z"/>
			<path id="_51427736" class="st0" d="M20.1,31.7c0.2-0.3,0.5-0.6,0.7-0.9c0.4,0.2,0.8,0.5,1.2,0.7s0.9,0.4,1.3,0.5
				c-0.5,0.6-1,1.3-1.5,1.9C21.1,33.2,20.6,32.5,20.1,31.7z"/>
			<path id="_51426656" class="st0" d="M30.7,32.4c0.6-0.1,1.3-0.2,2-0.5c-0.3,0.8-0.7,1.6-1,2.3c-1.6,0.8-3.3,1.3-5.1,1.4
				c0.8-0.9,1.5-1.9,2.1-3C29.4,32.6,30,32.6,30.7,32.4z"/>
			<path id="_51923224" class="st0" d="M22.1,34.2c0.5-0.7,1.1-1.4,1.6-2.1c1.4,0.4,2.9,0.6,4.4,0.6c-0.7,1-1.4,2.1-2.1,3
				C24.6,35.6,23.3,35,22.1,34.2z"/>
		</g>
		<g id="_53098192">
			<path id="_51922408" class="st1" d="M30.9,1.1c0.3,0.5,0.4,1.1,0.5,1.6c0.2,1.5,0.3,3,0.3,4.6c-0.6-0.2-1.4-0.6-2-0.8
				c0.2-0.8,0.4-1.5,0.6-2.3c0.2-0.9,0.4-1.9,0.6-2.8C30.8,1.2,30.8,1.2,30.9,1.1z"/>
			<path id="_51921456" class="st1" d="M43.6,8.4c0.6-0.1,1.2-0.1,1.8,0.1c0,0.2-0.2,0.3-0.4,0.4c-1.5,0.9-3,1.9-4.5,2.9
				c-0.6-0.7-1.4-1.3-2-2C40.1,9,41.8,8.5,43.6,8.4L43.6,8.4z"/>
			<path id="_51921184" class="st1" d="M2.8,13l0.4-0.1c3.6-0.2,7.8,1.4,11,3.1l0.3-0.3c0.1,0.2,0.1,0.3,0.1,0.5
				c-0.6,3.2-0.6,6.5,0.1,9.6c0.3,1.2,0.7,2.4,1.3,3.5c0.2-0.5,0.4-1.1,0.6-1.6c0.4-1.2,0.8-2.3,1.2-3.5c0.1-0.1,0.1-0.3,0.3-0.3
				c0.1,0.3,0.1,0.5,0.1,0.8c-0.1,0.7-0.2,1.4-0.3,2.1c3.1,1.6,6.6,2.4,10.1,2.4c3.1-0.3,6-1.1,8.8-2.3c0.3-0.1,0.6-0.2,0.9-0.4
				c0.1-0.3,0.2-0.6,0.3-0.9c0.3-1,0.7-1.9,1.4-2.8c0.1-0.1,0.3-0.2,0.4-0.3c0,0.6-0.4,1.1-0.5,1.7c-0.1,0.7,0,1.3,0.2,2
				c0.1,0.4,0.3,0.7,0.5,1.1c0.1,0.2,0,0.4-0.1,0.5c-0.1,0.4-0.4,0.8-0.7,1.2c-0.4-0.4-0.6-0.8-1-1.2c-0.9,2-2.3,3.8-3.9,5.3
				c-1.2,1.1-2.7,1.9-4.2,2.3c-0.7,0.2-1.4,0.3-2.1,0.5c0.8,0.1,1.6,0,2.4-0.1c3.2-0.4,6.2-1.6,8.8-3.4c0.4-0.3,0.8-0.6,1.1-0.9
				c1.5,0.9,3,1.7,4.4,2.6c0.2,0.1,0.4,0.2,0.6,0.3l0.1,0.2c-1-0.1-1.9-0.2-2.8-0.5c-1.2-0.2-2.4-0.6-3.6-0.9
				c-0.5,0.5-1,1.1-1.5,1.6c1.1,1.2,2.1,2.5,2.8,4c0.3,0.6-5.3-2-5.2-2c-0.8,0.6-1.7,1.1-2.6,1.6c-2.1,1-4.3,1.6-6.5,1.9
				c-0.3,1.6-1.7,3.1-2.6,4.5c-0.2-1.4-0.1-2.8,0.1-4.2c-0.5,0.1-1,0.1-1.5,0.1c-1.1,0-1.3-0.1-1.9-0.1c-0.3,0.5-2.5,4.2-2.7,4.2
				c0-1.6,0.1-3.2,0.2-4.8c-0.5-0.1-1-0.3-1.5-0.5c-0.2-0.1-0.4,0.1-0.5,0.2c-1.4,0.9-2.6,2-3.7,3.2c0-0.4,0-0.8,0.1-1.2
				c0.3-1.3,0.8-2.5,1.5-3.6c-0.4-0.3-0.8-0.5-1.1-0.8c-0.3,0.1-0.6,0.3-0.9,0.5c-1.1,0.9-2.1,1.9-3,2.9c-0.4,0.3-0.7,0.8-1.2,1
				c0.1-0.2,0.1-0.4,0.2-0.6c0.8-2,2-3.8,3.5-5.2l-0.2-0.3c-0.8,0.4-1.7,0.7-2.7,0.8c-0.7,0.1-1.3,0.2-2,0.2
				c0.1-0.3,0.4-0.5,0.6-0.7c0.6-0.6,1.1-1.3,1.6-2C8.6,33.6,8.8,33.3,9,33c-0.2-0.5-0.3-0.9-0.5-1.4c-1.9-0.9-5.2,0-7.3-0.1
				c1.4-1.5,4.9-2,6.8-2C8,28.9,8,28.2,8,27.5c-2,0.3-4.5,0.9-6.6,0.7C1.6,28.1,1.8,28,2,27.9c1.9-0.9,4-1.5,6.1-1.8l0.1-0.5
				c-1.5-1-3.2-1.7-4.9-2.1C2.6,23.2,2,23,1.3,22.9c1.4-1.8,6.2-1.6,8.3-1.5c0.3-0.4,0.6-0.9,0.8-1.4c0.2-0.2,0-0.4,0-0.6
				c-1.1-2.6-5.2-5-7.5-6.2C2.8,13.2,2.8,13.1,2.8,13 M36.9,27.5c-0.8,0.3-1.6,0.6-2.4,1c-0.4,1-0.7,2-1,2.9c0.7-0.3,1.4-0.7,2-1.1
				c0.6-0.4,1.1-0.9,1.4-1.6c0.3-0.4,0.4-0.8,0.4-1.3C37.2,27.4,37.1,27.4,36.9,27.5 M17.8,27.7c-0.4,0.8-0.7,1.6-1.1,2.4
				c-0.1,0.2,0,0.3,0.1,0.5c1.1,1.7,2.7,3.1,4.5,4c0.4,0.2,0.8,0.4,1.3,0.5c-0.3-0.4-0.8-0.6-1.1-1C19.7,32.2,18.5,30,17.8,27.7
				 M18.9,27.9c0.5,0.9,1.1,1.6,1.9,2.3c0.4-0.5,0.7-0.9,1.1-1.4C20.9,28.5,19.8,28.2,18.9,27.9 M32.5,28.9
				c-0.8,0.2-1.5,0.3-2.3,0.4c-0.4,1-0.8,1.9-1.3,2.9c1.3-0.1,2.6-0.4,3.9-0.7c0.4-1,0.7-1.9,1-2.9C33.5,28.7,33,28.8,32.5,28.9
				 M21.1,30.4c0.7,0.5,1.6,1,2.5,1.2c0.5-0.7,1-1.5,1.5-2.2c-0.9-0.1-1.8-0.3-2.8-0.5C21.9,29.4,21.5,29.9,21.1,30.4 M37.1,29
				c-0.3,0.4-0.6,0.7-1,1.1c-0.5,0.4-1,0.8-1.6,1.1c-0.4,0.2-0.7,0.4-1.1,0.5c-0.1,0-0.2,0.2-0.2,0.3c-0.2,0.6-0.5,1.3-0.8,1.9
				c0.5-0.3,1-0.6,1.5-1c0.4-0.3,0.9-0.7,1.2-1.1c0.9-0.9,1.6-1.8,2.3-2.8L37.1,29 M19.9,31.2l0.6-0.7c-0.5-0.4-1-0.8-1.4-1.3
				C19.3,29.9,19.6,30.6,19.9,31.2 M25.6,29.5c-0.5,0.8-1,1.5-1.6,2.3c1.4,0.4,2.9,0.5,4.4,0.5c0.5-0.9,1-1.9,1.4-2.9
				C28.4,29.6,27,29.6,25.6,29.5 M20.1,31.6c0.4,0.8,1,1.6,1.7,2.2c0.5-0.6,1-1.3,1.5-1.9c-0.4-0.2-0.9-0.4-1.3-0.5
				s-0.8-0.5-1.2-0.7C20.6,31.1,20.4,31.4,20.1,31.6 M30.7,32.4c-0.7,0.1-1.3,0.2-2,0.3c-0.6,1.1-1.4,2.1-2.1,3
				c1.8-0.1,3.5-0.5,5.1-1.4c0.3-0.8,0.7-1.6,1-2.4C32,32.2,31.4,32.3,30.7,32.4 M22.1,34.2c1.1,0.9,2.5,1.4,3.9,1.6
				c0.8-1,1.5-2,2.1-3c-1.5,0.1-3-0.1-4.4-0.6C23.2,32.8,22.7,33.5,22.1,34.2L22.1,34.2z"/>
			<path id="_51920032" class="st1" d="M29.7,15.3c0.7-0.1,1.4,0.1,2,0.1c0.9,0,1.8,0,2.7,0.1c0.5,0.4,1,0.9,1.5,1.4
				c0.3,0.2,0.5,0.5,0.7,0.7c-1.8-0.2-3.6-0.5-5.3-0.7c-0.4,0-0.8-0.1-1.1-0.3C29.6,16.3,29.7,15.7,29.7,15.3z"/>
			<path id="_51676904" class="st1" d="M22.3,17.6c1.2-0.6,2.4-1.3,3.6-1.9c-0.1,0.5-0.3,1-0.5,1.5c-0.1,0.2-0.2,0.3-0.4,0.4
				c-1.6,1.2-3.3,2.4-4.9,3.6l-0.4-0.3c0.3-0.6,0.6-1.1,0.9-1.7C21.1,18.5,21.6,18,22.3,17.6z"/>
			<path id="_51924864" class="st1" d="M43.8,16.5c1.2,0.1,2.3,0.3,3.4,0.6c0.6,0.2,1.1,0.4,1.6,0.7c0.2,0.1,0.4,0.2,0.5,0.4
				c-0.5,0.1-0.9,0.2-1.4,0.2c-1.1,0.1-2.1,0.3-3.1,0.5l0,0C44.5,18.1,44.1,17.3,43.8,16.5z"/>
			<path id="_51924080" class="st1" d="M46.2,24.1c0.6,0,1.1,0.1,1.7,0.1c1.4,0.2,2.8,0.6,4.1,1.2c-0.1,0.1-0.3,0.1-0.5,0.1
				c-1.5,0.2-2.9,0.4-4.5,0.6l-0.5,0.1C46.4,25.6,46.4,24.8,46.2,24.1z"/>
		</g>
		<g id="_51738608">
			<path id="_51675912" class="st2" d="M15.7,5.3c0.2,0,0.3,0,0.5,0.1c2.5,1.5,4.5,3.8,5.6,6.5c0.7-0.1,1.4-0.3,2.1-0.5
				c0-1.2-0.1-2.3-0.4-3.4c-0.2-0.6-0.3-1.2-0.4-1.7c1,0.1,1.9,1.4,2.3,2.2s1.1,1.8,1.6,2.7h1c0.9-1.4,1.4-2.9,1.6-4.5V6.5h0.1
				C30.4,6.7,31,7,31.6,7.2c-0.1,1.4-0.3,2.8-0.7,4.1c1.1,0.2,2.2,0.5,3.3,0.9c1.3-1,2.8-1.8,4.2-2.6l0,0c0.6,0.7,1.3,1.3,2,2
				c-1,0.7-1.9,1.5-2.7,2.4c0.9,0.7,1.8,1.6,2.5,2.5c1.1-0.2,2.3-0.3,3.5-0.1c0.4,0.8,0.7,1.6,1.1,2.4c-1,0.3-1.9,0.8-2.7,1.3
				c0.3,1.1,0.5,2.2,0.5,3.3c0,0.2,0,0.4,0,0.5c1.2-0.1,2.4-0.1,3.5-0.1c0.1,0.7,0.2,1.4,0.3,2v0.1c-1.4,0.1-2.8,0.4-4.1,1
				c-0.5,0.2-0.4,0.8-0.6,1.2c1.1,0.1,2.2,0.7,3,1.5c-0.8,0-1.6-0.2-2.4-0.2h-1.1c-0.3,0.7-0.7,1.3-1.1,2c-0.3,0.4-0.7,0.7-1.1,0.9
				c-2.6,1.8-5.6,2.9-8.8,3.4C29.6,36,28.8,36,28,35.9c0.7-0.2,1.4-0.3,2.1-0.5c1.6-0.5,3-1.3,4.2-2.3c1.6-1.5,3-3.2,3.9-5.2
				c0.4,0.4,0.6,0.8,1,1.2c0.3-0.3,0.6-0.8,0.7-1.2c0-0.2,0.2-0.4,0.1-0.5c-0.2-0.3-0.4-0.7-0.5-1c-0.2-0.6-0.3-1.3-0.2-2
				c0.1-0.6,0.4-1.1,0.5-1.7c-0.2,0-0.3,0.1-0.4,0.3c-0.6,0.8-1.1,1.7-1.4,2.7c-0.1,0.3-0.2,0.6-0.3,0.9c-0.3,0.2-0.6,0.3-0.9,0.4
				c-2.8,1.2-5.8,2-8.9,2.3c-3.5,0-7-0.8-10.1-2.4c0.2-0.7,0.3-1.4,0.3-2.1c0-0.3,0-0.5-0.1-0.8c-0.2,0-0.2,0.2-0.3,0.3
				c-0.4,1.2-0.8,2.3-1.2,3.5c-0.2,0.5-0.4,1.1-0.6,1.6c-0.6-1.1-1-2.3-1.3-3.5c-0.7-3.2-0.7-6.5-0.1-9.6c0-0.2,0-0.4-0.1-0.5
				c0.2-0.2,0.5-0.4,0.7-0.5c-0.7-1.8-2.4-2.9-3.5-4.4c-0.1-0.3,0.3-0.1,0.4-0.1c1.9,0.3,3.3,2.1,4.6,3.5c0.4-0.2,0.8-0.4,1.1-0.6
				C19,11,16.5,7.5,15.7,5.3 M29.6,15.3c0.1,0.4-0.1,1,0.4,1.3c0.3,0.2,0.7,0.3,1.2,0.3c1.8,0.2,3.6,0.5,5.3,0.7
				c-0.2-0.3-0.4-0.5-0.7-0.7c-0.5-0.4-0.9-1-1.5-1.4c-0.9-0.1-1.8-0.1-2.7-0.1C31,15.4,30.3,15.3,29.6,15.3 M22.4,17.7
				c-0.7,0.3-1.2,0.8-1.6,1.5c-0.3,0.6-0.6,1.1-0.9,1.7l0.4,0.3c1.6-1.2,3.3-2.4,4.9-3.6c0.2-0.1,0.3-0.3,0.4-0.4
				c0.2-0.5,0.4-1,0.5-1.5C24.8,16.3,23.6,17,22.4,17.7 M33.2,17.9c-0.7,0.2-1.3,0.7-1.6,1.3c-1.1,2-0.3,4.6,1.7,5.7c0,0,0,0,0.1,0
				c0.7,0.4,1.5,0.4,2.3,0.1c0.7-0.3,1.2-0.8,1.5-1.4c1-2.1,0.1-4.6-2-5.5C34.6,17.8,33.9,17.7,33.2,17.9 M25.2,18.8
				c-0.5,0.1-1,0.3-1.4,0.6c-0.7,0.6-1,1.5-1.1,2.4c0,1,0.3,2,0.9,2.8c0.6,0.7,1.4,1.2,2.3,1.4c1.1,0.2,2.2-0.3,2.8-1.2
				c1.1-2,0.4-4.5-1.5-5.6C26.7,18.8,26,18.7,25.2,18.8L25.2,18.8z"/>
			<path id="_51674640" class="st3" d="M17.7,27.7c0.7,2.4,1.9,4.5,3.6,6.3c0.3,0.4,0.8,0.6,1.1,1c-0.4-0.1-0.9-0.3-1.3-0.5
				c-1.8-0.9-3.4-2.3-4.5-4c-0.1-0.1-0.2-0.3-0.1-0.5C17,29.3,17.3,28.5,17.7,27.7L17.7,27.7z"/>
		</g>
		<g id="_51744536">
			<path id="_51552160" class="st4" d="M33.2,17.9c0.6-0.2,1.3-0.1,1.9,0.1c2.1,1,3,3.5,2,5.5c-0.3,0.7-0.8,1.2-1.5,1.4
				c-0.7,0.3-1.6,0.2-2.3-0.1c-2.1-1.1-2.9-3.6-1.8-5.6c0,0,0,0,0-0.1C32,18.6,32.5,18.1,33.2,17.9 M32.9,19.2
				c-0.3,0.1-0.5,0.3-0.6,0.6c0,0.4,0.1,0.8,0.4,1.1c0.4,0.3,0.9,0.3,1.3,0c0.4-0.3,0.2-0.9,0-1.3C33.8,19.2,33.3,19.1,32.9,19.2
				L32.9,19.2z"/>
			<path id="_51550656" class="st4" d="M25.3,18.8c0.7-0.1,1.4,0.1,2,0.4c2,1.1,2.6,3.6,1.5,5.6c-0.6,0.9-1.7,1.4-2.8,1.2
				c-0.9-0.2-1.7-0.7-2.3-1.5c-0.6-0.8-0.9-1.8-0.9-2.8c0-0.9,0.4-1.7,1-2.4C24.3,19.1,24.8,18.9,25.3,18.8 M25,19.9
				c-0.4,0.1-0.6,0.5-0.6,0.9c0.1,0.4,0.3,0.8,0.6,1c0.5,0.1,1.2-0.1,1.2-0.7c0-0.4-0.2-0.7-0.5-1C25.6,19.8,25.3,19.8,25,19.9z"/>
		</g>
	</g>
</g>
</svg>
